<mxfile host="app.diagrams.net" modified="2023-02-15T07:54:56.037Z" agent="5.0 (Windows NT 10.0; Win64; x64) AppleWebKit/537.36 (KHTML, like Gecko) Chrome/110.0.0.0 Safari/537.36" etag="ARx-1_WlQm2TMGU89sQE" version="20.8.20" type="github">
  <diagram name="Page-1" id="Nm8yuMhBYfq0i2Mw79TL">
    <mxGraphModel dx="1434" dy="1609" grid="0" gridSize="10" guides="1" tooltips="1" connect="1" arrows="1" fold="1" page="1" pageScale="1" pageWidth="1169" pageHeight="827" math="0" shadow="0">
      <root>
        <mxCell id="0" />
        <mxCell id="1" parent="0" />
        <mxCell id="0MXYeQxeOqarbMMUeMcZ-1" value="level 0" style="swimlane;childLayout=stackLayout;horizontal=1;startSize=30;horizontalStack=0;rounded=1;fontSize=14;fontStyle=0;strokeWidth=2;resizeParent=0;resizeLast=1;shadow=0;dashed=0;align=center;fillColor=#A8DADC;" parent="1" vertex="1">
          <mxGeometry x="470" y="190" width="250" height="200" as="geometry" />
        </mxCell>
        <mxCell id="0MXYeQxeOqarbMMUeMcZ-9" value="&lt;b&gt;&lt;font style=&quot;font-size: 20px;&quot;&gt;Revive My Memory&lt;/font&gt;&lt;/b&gt;" style="text;strokeColor=none;align=center;fillColor=none;html=1;verticalAlign=middle;whiteSpace=wrap;rounded=0;" parent="0MXYeQxeOqarbMMUeMcZ-1" vertex="1">
          <mxGeometry y="30" width="250" height="170" as="geometry" />
        </mxCell>
        <mxCell id="0MXYeQxeOqarbMMUeMcZ-15" value="Login" style="html=1;verticalAlign=bottom;endArrow=block;edgeStyle=elbowEdgeStyle;elbow=vertical;curved=0;rounded=0;startArrow=none;entryX=0.004;entryY=0.121;entryDx=0;entryDy=0;entryPerimeter=0;" parent="1" target="0MXYeQxeOqarbMMUeMcZ-9" edge="1">
          <mxGeometry width="80" relative="1" as="geometry">
            <mxPoint x="229" y="240" as="sourcePoint" />
            <mxPoint x="440" y="230" as="targetPoint" />
            <Array as="points">
              <mxPoint x="380" y="240" />
              <mxPoint x="340" y="230" />
              <mxPoint x="400" y="260" />
              <mxPoint x="290" y="280" />
            </Array>
            <mxPoint as="offset" />
          </mxGeometry>
        </mxCell>
        <mxCell id="0MXYeQxeOqarbMMUeMcZ-18" value="Register" style="html=1;verticalAlign=bottom;endArrow=block;edgeStyle=elbowEdgeStyle;elbow=vertical;curved=0;rounded=0;startArrow=none;exitX=1.002;exitY=0.338;exitDx=0;exitDy=0;entryX=0;entryY=0.25;entryDx=0;entryDy=0;exitPerimeter=0;" parent="1" target="0MXYeQxeOqarbMMUeMcZ-9" edge="1">
          <mxGeometry x="0.0492" y="3" width="80" relative="1" as="geometry">
            <mxPoint x="229.4000000000001" y="273.70000000000005" as="sourcePoint" />
            <mxPoint x="470" y="250" as="targetPoint" />
            <Array as="points">
              <mxPoint x="330" y="263" />
              <mxPoint x="260" y="253" />
              <mxPoint x="250" y="260" />
              <mxPoint x="290" y="253" />
              <mxPoint x="290" y="260" />
              <mxPoint x="370" y="260" />
              <mxPoint x="330" y="250" />
              <mxPoint x="400" y="280" />
              <mxPoint x="290" y="300" />
            </Array>
            <mxPoint y="1" as="offset" />
          </mxGeometry>
        </mxCell>
        <mxCell id="0MXYeQxeOqarbMMUeMcZ-20" value="create tasks" style="html=1;verticalAlign=bottom;endArrow=block;edgeStyle=elbowEdgeStyle;elbow=vertical;curved=0;rounded=0;startArrow=none;exitX=1;exitY=0.421;exitDx=0;exitDy=0;exitPerimeter=0;" parent="1" edge="1">
          <mxGeometry x="-0.0601" width="80" relative="1" as="geometry">
            <mxPoint x="229" y="286.1500000000001" as="sourcePoint" />
            <mxPoint x="470" y="280" as="targetPoint" />
            <Array as="points">
              <mxPoint x="340" y="280" />
              <mxPoint x="400" y="270" />
              <mxPoint x="240" y="280" />
              <mxPoint x="400" y="320" />
              <mxPoint x="290" y="340" />
            </Array>
            <mxPoint as="offset" />
          </mxGeometry>
        </mxCell>
        <mxCell id="0MXYeQxeOqarbMMUeMcZ-21" value="Start Video&amp;nbsp;conference with doctor or&amp;nbsp;volunteer&amp;nbsp;" style="html=1;verticalAlign=bottom;endArrow=block;edgeStyle=elbowEdgeStyle;elbow=vertical;curved=0;rounded=0;startArrow=none;" parent="1" edge="1">
          <mxGeometry x="0.0769" width="80" relative="1" as="geometry">
            <mxPoint x="230" y="290" as="sourcePoint" />
            <mxPoint x="470" y="310" as="targetPoint" />
            <Array as="points">
              <mxPoint x="330" y="310" />
              <mxPoint x="400" y="330" />
              <mxPoint x="290" y="350" />
            </Array>
            <mxPoint as="offset" />
          </mxGeometry>
        </mxCell>
        <mxCell id="0MXYeQxeOqarbMMUeMcZ-23" value="Upload MRI" style="html=1;verticalAlign=bottom;endArrow=block;edgeStyle=elbowEdgeStyle;elbow=vertical;curved=0;rounded=0;startArrow=none;" parent="1" target="0MXYeQxeOqarbMMUeMcZ-9" edge="1">
          <mxGeometry x="0.0526" width="80" relative="1" as="geometry">
            <mxPoint x="938" y="230" as="sourcePoint" />
            <mxPoint x="960" y="290" as="targetPoint" />
            <Array as="points">
              <mxPoint x="860" y="230" />
              <mxPoint x="810" y="290" />
              <mxPoint x="880" y="310" />
              <mxPoint x="770" y="330" />
            </Array>
            <mxPoint as="offset" />
          </mxGeometry>
        </mxCell>
        <mxCell id="0MXYeQxeOqarbMMUeMcZ-24" value="Get instruction from doctor" style="html=1;verticalAlign=bottom;endArrow=block;edgeStyle=elbowEdgeStyle;elbow=vertical;curved=0;rounded=0;startArrow=none;exitX=0;exitY=0.5;exitDx=0;exitDy=0;entryX=0.995;entryY=0.632;entryDx=0;entryDy=0;entryPerimeter=0;" parent="1" source="0MXYeQxeOqarbMMUeMcZ-9" target="ebdVjya2JHvsOeHQLmHW-1" edge="1">
          <mxGeometry x="0.0526" width="80" relative="1" as="geometry">
            <mxPoint x="470" y="320" as="sourcePoint" />
            <mxPoint x="261" y="327" as="targetPoint" />
            <Array as="points">
              <mxPoint x="400" y="330" />
              <mxPoint x="392" y="320" />
              <mxPoint x="342" y="380" />
              <mxPoint x="412" y="400" />
              <mxPoint x="302" y="420" />
            </Array>
            <mxPoint as="offset" />
          </mxGeometry>
        </mxCell>
        <mxCell id="0MXYeQxeOqarbMMUeMcZ-25" value="Review Detection results" style="html=1;verticalAlign=bottom;endArrow=block;edgeStyle=elbowEdgeStyle;elbow=vertical;curved=0;rounded=0;startArrow=none;" parent="1" edge="1">
          <mxGeometry x="0.0526" width="80" relative="1" as="geometry">
            <mxPoint x="940" y="250" as="sourcePoint" />
            <mxPoint x="720" y="250" as="targetPoint" />
            <Array as="points">
              <mxPoint x="862" y="250" />
              <mxPoint x="812" y="310" />
              <mxPoint x="882" y="330" />
              <mxPoint x="772" y="350" />
            </Array>
            <mxPoint as="offset" />
          </mxGeometry>
        </mxCell>
        <mxCell id="0MXYeQxeOqarbMMUeMcZ-27" value="Give Instruction to the patient" style="html=1;verticalAlign=bottom;endArrow=block;edgeStyle=elbowEdgeStyle;elbow=vertical;curved=0;rounded=0;startArrow=none;" parent="1" edge="1">
          <mxGeometry x="0.0526" width="80" relative="1" as="geometry">
            <mxPoint x="940" y="274.5" as="sourcePoint" />
            <mxPoint x="720" y="274.5" as="targetPoint" />
            <Array as="points">
              <mxPoint x="862" y="274.5" />
              <mxPoint x="812" y="334.5" />
              <mxPoint x="882" y="354.5" />
              <mxPoint x="772" y="374.5" />
            </Array>
            <mxPoint as="offset" />
          </mxGeometry>
        </mxCell>
        <mxCell id="0MXYeQxeOqarbMMUeMcZ-29" value="Receive&amp;nbsp;Video conference" style="html=1;verticalAlign=bottom;endArrow=block;edgeStyle=elbowEdgeStyle;elbow=vertical;curved=0;rounded=0;startArrow=none;" parent="1" edge="1">
          <mxGeometry x="0.0045" width="80" relative="1" as="geometry">
            <mxPoint x="719" y="320" as="sourcePoint" />
            <mxPoint x="940" y="320" as="targetPoint" />
            <Array as="points">
              <mxPoint x="870" y="320" />
              <mxPoint x="830" y="310" />
              <mxPoint x="852" y="470" />
              <mxPoint x="802" y="530" />
              <mxPoint x="872" y="550" />
              <mxPoint x="762" y="570" />
            </Array>
            <mxPoint as="offset" />
          </mxGeometry>
        </mxCell>
        <mxCell id="0MXYeQxeOqarbMMUeMcZ-31" value="Start Video conference with patient" style="html=1;verticalAlign=bottom;endArrow=block;edgeStyle=elbowEdgeStyle;elbow=vertical;curved=0;rounded=0;startArrow=none;" parent="1" edge="1">
          <mxGeometry x="0.0526" width="80" relative="1" as="geometry">
            <mxPoint x="940" y="300" as="sourcePoint" />
            <mxPoint x="720" y="300" as="targetPoint" />
            <Array as="points">
              <mxPoint x="862" y="300" />
              <mxPoint x="812" y="360" />
              <mxPoint x="882" y="380" />
              <mxPoint x="772" y="400" />
            </Array>
            <mxPoint as="offset" />
          </mxGeometry>
        </mxCell>
        <mxCell id="0MXYeQxeOqarbMMUeMcZ-33" value="Receive&amp;nbsp;Video conference" style="html=1;verticalAlign=bottom;endArrow=block;edgeStyle=elbowEdgeStyle;elbow=vertical;curved=0;rounded=0;startArrow=none;exitX=0;exitY=0.75;exitDx=0;exitDy=0;entryX=1;entryY=0.756;entryDx=0;entryDy=0;entryPerimeter=0;" parent="1" source="0MXYeQxeOqarbMMUeMcZ-9" target="ebdVjya2JHvsOeHQLmHW-1" edge="1">
          <mxGeometry x="0.0526" width="80" relative="1" as="geometry">
            <mxPoint x="460" y="350" as="sourcePoint" />
            <mxPoint x="223" y="351" as="targetPoint" />
            <Array as="points">
              <mxPoint x="340" y="351" />
              <mxPoint x="382" y="365" />
              <mxPoint x="332" y="425" />
              <mxPoint x="402" y="445" />
              <mxPoint x="292" y="465" />
            </Array>
            <mxPoint as="offset" />
          </mxGeometry>
        </mxCell>
        <mxCell id="0MXYeQxeOqarbMMUeMcZ-37" value="" style="endArrow=blockThin;endSize=16;endFill=1;html=1;rounded=0;fontSize=11;startArrow=none;entryX=0.287;entryY=1.025;entryDx=0;entryDy=0;entryPerimeter=0;" parent="1" target="0MXYeQxeOqarbMMUeMcZ-9" edge="1">
          <mxGeometry x="-1" y="212" width="160" relative="1" as="geometry">
            <mxPoint x="541" y="421" as="sourcePoint" />
            <mxPoint x="600" y="390" as="targetPoint" />
            <Array as="points" />
            <mxPoint x="-70" y="12" as="offset" />
          </mxGeometry>
        </mxCell>
        <mxCell id="0MXYeQxeOqarbMMUeMcZ-38" value="" style="endArrow=none;endSize=16;endFill=1;html=1;rounded=0;fontSize=11;entryX=0.425;entryY=0.967;entryDx=0;entryDy=0;entryPerimeter=0;exitX=0.305;exitY=-0.011;exitDx=0;exitDy=0;exitPerimeter=0;" parent="1" target="0MXYeQxeOqarbMMUeMcZ-36" edge="1" source="ebdVjya2JHvsOeHQLmHW-2">
          <mxGeometry x="-1" y="212" width="160" relative="1" as="geometry">
            <mxPoint x="532" y="519" as="sourcePoint" />
            <mxPoint x="603" y="391" as="targetPoint" />
            <Array as="points" />
            <mxPoint x="-70" y="12" as="offset" />
          </mxGeometry>
        </mxCell>
        <mxCell id="0MXYeQxeOqarbMMUeMcZ-36" value="Receive Video conference" style="text;html=1;align=center;verticalAlign=middle;resizable=0;points=[];autosize=1;strokeColor=none;fillColor=none;fontSize=11;" parent="1" vertex="1">
          <mxGeometry x="483" y="424" width="146" height="25" as="geometry" />
        </mxCell>
        <mxCell id="0MXYeQxeOqarbMMUeMcZ-40" value="" style="endArrow=blockThin;endSize=16;endFill=1;html=1;rounded=0;fontSize=11;startArrow=none;entryX=0.25;entryY=1;entryDx=0;entryDy=0;" parent="1" edge="1">
          <mxGeometry x="-1" y="212" width="160" relative="1" as="geometry">
            <mxPoint x="676" y="427" as="sourcePoint" />
            <mxPoint x="676" y="385" as="targetPoint" />
            <Array as="points" />
            <mxPoint x="-70" y="12" as="offset" />
          </mxGeometry>
        </mxCell>
        <mxCell id="0MXYeQxeOqarbMMUeMcZ-41" value="" style="endArrow=none;endSize=16;endFill=1;html=1;rounded=0;fontSize=11;exitX=0.722;exitY=0.008;exitDx=0;exitDy=0;exitPerimeter=0;" parent="1" edge="1">
          <mxGeometry x="-1" y="212" width="160" relative="1" as="geometry">
            <mxPoint x="675.5340000000001" y="521.344" as="sourcePoint" />
            <mxPoint x="676" y="452" as="targetPoint" />
            <Array as="points" />
            <mxPoint x="-70" y="12" as="offset" />
          </mxGeometry>
        </mxCell>
        <mxCell id="0MXYeQxeOqarbMMUeMcZ-42" value="create Events" style="html=1;verticalAlign=bottom;endArrow=block;edgeStyle=elbowEdgeStyle;elbow=vertical;curved=0;rounded=0;startArrow=none;exitX=0.008;exitY=0.783;exitDx=0;exitDy=0;exitPerimeter=0;" parent="1" source="ebdVjya2JHvsOeHQLmHW-3" edge="1">
          <mxGeometry x="0.0526" width="80" relative="1" as="geometry">
            <mxPoint x="936" y="349" as="sourcePoint" />
            <mxPoint x="723" y="349" as="targetPoint" />
            <Array as="points">
              <mxPoint x="858" y="349" />
              <mxPoint x="808" y="409" />
              <mxPoint x="878" y="429" />
              <mxPoint x="768" y="449" />
            </Array>
            <mxPoint as="offset" />
          </mxGeometry>
        </mxCell>
        <mxCell id="0MXYeQxeOqarbMMUeMcZ-39" value="Start Video conference" style="text;html=1;align=center;verticalAlign=middle;resizable=0;points=[];autosize=1;strokeColor=none;fillColor=none;fontSize=11;" parent="1" vertex="1">
          <mxGeometry x="621" y="424" width="130" height="25" as="geometry" />
        </mxCell>
        <mxCell id="0MXYeQxeOqarbMMUeMcZ-46" value="" style="endArrow=blockThin;endSize=16;endFill=1;html=1;rounded=0;fontSize=11;startArrow=none;entryX=0.25;entryY=1;entryDx=0;entryDy=0;" parent="1" edge="1">
          <mxGeometry x="-1" y="212" width="160" relative="1" as="geometry">
            <mxPoint x="621" y="459" as="sourcePoint" />
            <mxPoint x="621" y="384" as="targetPoint" />
            <Array as="points" />
            <mxPoint x="-70" y="12" as="offset" />
          </mxGeometry>
        </mxCell>
        <mxCell id="0MXYeQxeOqarbMMUeMcZ-47" value="create Support Group" style="text;html=1;align=center;verticalAlign=middle;resizable=0;points=[];autosize=1;strokeColor=none;fillColor=none;fontSize=11;" parent="1" vertex="1">
          <mxGeometry x="545" y="458" width="124" height="25" as="geometry" />
        </mxCell>
        <mxCell id="0MXYeQxeOqarbMMUeMcZ-50" value="" style="endArrow=none;endSize=16;endFill=1;html=1;rounded=0;fontSize=11;entryX=0.627;entryY=1.032;entryDx=0;entryDy=0;entryPerimeter=0;exitX=0.57;exitY=0.006;exitDx=0;exitDy=0;exitPerimeter=0;" parent="1" target="0MXYeQxeOqarbMMUeMcZ-47" edge="1">
          <mxGeometry x="-1" y="212" width="160" relative="1" as="geometry">
            <mxPoint x="622.7900000000002" y="521.008" as="sourcePoint" />
            <mxPoint x="616" y="447" as="targetPoint" />
            <Array as="points" />
            <mxPoint x="-70" y="12" as="offset" />
          </mxGeometry>
        </mxCell>
        <mxCell id="ebdVjya2JHvsOeHQLmHW-1" value="&lt;b&gt;&lt;font style=&quot;font-size: 19px;&quot;&gt;Patient&lt;/font&gt;&lt;/b&gt;" style="shape=ext;margin=3;double=1;whiteSpace=wrap;html=1;align=center;fillColor=#A8DADC;" parent="1" vertex="1">
          <mxGeometry x="24" y="218" width="204" height="176" as="geometry" />
        </mxCell>
        <mxCell id="ebdVjya2JHvsOeHQLmHW-2" value="&lt;b&gt;&lt;font style=&quot;font-size: 19px;&quot;&gt;Volunteer&lt;/font&gt;&lt;/b&gt;" style="shape=ext;margin=3;double=1;whiteSpace=wrap;html=1;align=center;fillColor=#A8DADC;" parent="1" vertex="1">
          <mxGeometry x="437" y="517" width="352" height="176" as="geometry" />
        </mxCell>
        <mxCell id="ebdVjya2JHvsOeHQLmHW-3" value="&lt;b&gt;&lt;font style=&quot;font-size: 19px;&quot;&gt;Doctor&lt;/font&gt;&lt;/b&gt;" style="shape=ext;margin=3;double=1;whiteSpace=wrap;html=1;align=center;fillColor=#A8DADC;" parent="1" vertex="1">
          <mxGeometry x="941" y="210" width="203.5" height="176" as="geometry" />
        </mxCell>
        <mxCell id="LUe6OnfxEQRZptLhmiOy-1" value="Login" style="html=1;verticalAlign=bottom;endArrow=block;edgeStyle=elbowEdgeStyle;elbow=vertical;curved=0;rounded=0;startArrow=none;exitX=0.136;exitY=-0.002;exitDx=0;exitDy=0;exitPerimeter=0;" edge="1" parent="1" source="ebdVjya2JHvsOeHQLmHW-2">
          <mxGeometry x="-0.4128" width="80" relative="1" as="geometry">
            <mxPoint x="476" y="508" as="sourcePoint" />
            <mxPoint x="485" y="394" as="targetPoint" />
            <Array as="points">
              <mxPoint x="491" y="409" />
              <mxPoint x="490" y="420" />
              <mxPoint x="483" y="453" />
              <mxPoint x="466" y="432" />
              <mxPoint x="526" y="462" />
              <mxPoint x="416" y="482" />
            </Array>
            <mxPoint as="offset" />
          </mxGeometry>
        </mxCell>
        <mxCell id="LUe6OnfxEQRZptLhmiOy-2" value="Register" style="html=1;verticalAlign=bottom;endArrow=block;edgeStyle=elbowEdgeStyle;elbow=vertical;curved=0;rounded=0;startArrow=none;entryX=0.962;entryY=1.001;entryDx=0;entryDy=0;entryPerimeter=0;endFill=1;" edge="1" parent="1" target="0MXYeQxeOqarbMMUeMcZ-9">
          <mxGeometry x="-0.3167" y="4" width="80" relative="1" as="geometry">
            <mxPoint x="711" y="515" as="sourcePoint" />
            <mxPoint x="778.5999999999999" y="482.99999999999994" as="targetPoint" />
            <Array as="points">
              <mxPoint x="711" y="505" />
              <mxPoint x="708" y="493" />
              <mxPoint x="638.5999999999999" y="482.99999999999994" />
              <mxPoint x="568.5999999999999" y="472.99999999999994" />
              <mxPoint x="558.5999999999999" y="479.99999999999994" />
              <mxPoint x="598.5999999999999" y="472.99999999999994" />
              <mxPoint x="598.5999999999999" y="479.99999999999994" />
              <mxPoint x="678.5999999999999" y="479.99999999999994" />
              <mxPoint x="638.5999999999999" y="469.99999999999994" />
              <mxPoint x="708.5999999999999" y="499.99999999999994" />
              <mxPoint x="598.5999999999999" y="520" />
            </Array>
            <mxPoint x="1" as="offset" />
          </mxGeometry>
        </mxCell>
        <mxCell id="LUe6OnfxEQRZptLhmiOy-3" value="Login" style="html=1;verticalAlign=bottom;endArrow=none;edgeStyle=elbowEdgeStyle;elbow=vertical;curved=0;rounded=0;startArrow=block;startFill=1;endFill=0;" edge="1" parent="1">
          <mxGeometry width="80" relative="1" as="geometry">
            <mxPoint x="720" y="364" as="sourcePoint" />
            <mxPoint x="943" y="362" as="targetPoint" />
            <Array as="points">
              <mxPoint x="871" y="364" />
              <mxPoint x="831" y="354" />
              <mxPoint x="891" y="384" />
              <mxPoint x="781" y="404" />
            </Array>
            <mxPoint as="offset" />
          </mxGeometry>
        </mxCell>
        <mxCell id="LUe6OnfxEQRZptLhmiOy-4" value="Register" style="html=1;verticalAlign=bottom;endArrow=none;edgeStyle=elbowEdgeStyle;elbow=vertical;curved=0;rounded=0;startArrow=block;startFill=1;endFill=0;exitX=1.012;exitY=0.912;exitDx=0;exitDy=0;exitPerimeter=0;" edge="1" parent="1" source="0MXYeQxeOqarbMMUeMcZ-9">
          <mxGeometry x="-0.3896" y="4" width="80" relative="1" as="geometry">
            <mxPoint x="742" y="378" as="sourcePoint" />
            <mxPoint x="942" y="375" as="targetPoint" />
            <Array as="points">
              <mxPoint x="810.5999999999999" y="375.29999999999995" />
              <mxPoint x="740.5999999999999" y="365.29999999999995" />
              <mxPoint x="730.5999999999999" y="372.29999999999995" />
              <mxPoint x="770.5999999999999" y="365.29999999999995" />
              <mxPoint x="770.5999999999999" y="372.29999999999995" />
              <mxPoint x="850.5999999999999" y="372.29999999999995" />
              <mxPoint x="810.5999999999999" y="362.29999999999995" />
              <mxPoint x="880.5999999999999" y="392.29999999999995" />
              <mxPoint x="770.5999999999999" y="412.29999999999995" />
            </Array>
            <mxPoint as="offset" />
          </mxGeometry>
        </mxCell>
        <mxCell id="LUe6OnfxEQRZptLhmiOy-8" value="&lt;b&gt;&lt;font style=&quot;font-size: 19px;&quot;&gt;Carer&lt;/font&gt;&lt;/b&gt;" style="shape=ext;margin=3;double=1;whiteSpace=wrap;html=1;align=center;fillColor=#A8DADC;" vertex="1" parent="1">
          <mxGeometry x="486" y="-33" width="204" height="176" as="geometry" />
        </mxCell>
        <mxCell id="LUe6OnfxEQRZptLhmiOy-10" value="Login" style="html=1;verticalAlign=bottom;endArrow=block;edgeStyle=elbowEdgeStyle;elbow=vertical;curved=0;rounded=0;startArrow=none;entryX=0.25;entryY=0;entryDx=0;entryDy=0;" edge="1" parent="1" target="0MXYeQxeOqarbMMUeMcZ-1">
          <mxGeometry width="80" relative="1" as="geometry">
            <mxPoint x="533" y="145" as="sourcePoint" />
            <mxPoint x="531" y="102" as="targetPoint" />
            <Array as="points">
              <mxPoint x="535" y="163" />
              <mxPoint x="350" y="141" />
            </Array>
            <mxPoint as="offset" />
          </mxGeometry>
        </mxCell>
        <mxCell id="LUe6OnfxEQRZptLhmiOy-11" value="Register" style="html=1;verticalAlign=bottom;endArrow=block;edgeStyle=elbowEdgeStyle;elbow=vertical;curved=0;rounded=0;startArrow=none;exitX=0.583;exitY=0.996;exitDx=0;exitDy=0;entryX=0.528;entryY=0.006;entryDx=0;entryDy=0;exitPerimeter=0;entryPerimeter=0;" edge="1" parent="1" source="LUe6OnfxEQRZptLhmiOy-8" target="0MXYeQxeOqarbMMUeMcZ-1">
          <mxGeometry x="0.0492" y="3" width="80" relative="1" as="geometry">
            <mxPoint x="256" y="59" as="sourcePoint" />
            <mxPoint x="496.5999999999999" y="48.299999999999955" as="targetPoint" />
            <Array as="points">
              <mxPoint x="607" y="156" />
              <mxPoint x="356.5999999999999" y="48.299999999999955" />
              <mxPoint x="286.5999999999999" y="38.299999999999955" />
              <mxPoint x="276.5999999999999" y="45.299999999999955" />
              <mxPoint x="316.5999999999999" y="38.299999999999955" />
              <mxPoint x="316.5999999999999" y="45.299999999999955" />
              <mxPoint x="396.5999999999999" y="45.299999999999955" />
              <mxPoint x="356.5999999999999" y="35.299999999999955" />
              <mxPoint x="426.5999999999999" y="65.29999999999995" />
              <mxPoint x="316.5999999999999" y="85.29999999999995" />
            </Array>
            <mxPoint y="1" as="offset" />
          </mxGeometry>
        </mxCell>
        <mxCell id="LUe6OnfxEQRZptLhmiOy-13" value="create tasks" style="html=1;verticalAlign=bottom;endArrow=block;edgeStyle=elbowEdgeStyle;elbow=vertical;curved=0;rounded=0;startArrow=none;entryX=0.75;entryY=0;entryDx=0;entryDy=0;" edge="1" parent="1" target="0MXYeQxeOqarbMMUeMcZ-1">
          <mxGeometry x="-0.0601" width="80" relative="1" as="geometry">
            <mxPoint x="658" y="139" as="sourcePoint" />
            <mxPoint x="516" y="65.84999999999991" as="targetPoint" />
            <Array as="points">
              <mxPoint x="658" y="164" />
              <mxPoint x="446" y="55.84999999999991" />
              <mxPoint x="286" y="65.84999999999991" />
              <mxPoint x="446" y="105.84999999999991" />
              <mxPoint x="336" y="125.84999999999991" />
            </Array>
            <mxPoint as="offset" />
          </mxGeometry>
        </mxCell>
      </root>
    </mxGraphModel>
  </diagram>
</mxfile>
